<mxfile host="app.diagrams.net" modified="2023-09-25T00:49:41.034Z" agent="5.0 (Windows NT 10.0; Win64; x64) AppleWebKit/537.36 (KHTML, like Gecko) Chrome/117.0.0.0 Safari/537.36 Edg/117.0.2045.36" etag="gHH_zLkV4HOFhaGdvSBm" version="20.3.3" type="github">
  <diagram id="1hXIKpm6MRpzGdJKH5At" name="第 1 页">
    <mxGraphModel dx="774" dy="465" grid="1" gridSize="10" guides="1" tooltips="1" connect="1" arrows="1" fold="1" page="1" pageScale="1" pageWidth="827" pageHeight="1169" math="0" shadow="0">
      <root>
        <mxCell id="0" />
        <mxCell id="1" parent="0" />
      </root>
    </mxGraphModel>
  </diagram>
</mxfile>
